HIERARCHY
ROOT Hips
{
  OFFSET 5.84602e-005 68.8428 3.50346
  CHANNELS 6 Xposition Yposition Zposition Zrotation Xrotation Yrotation
  JOINT Spine
  {
    OFFSET 0 8.597 -4.6522
    CHANNELS 3 Zrotation Xrotation Yrotation
    JOINT Spine1
    {
      OFFSET 0 7.8454 0.4098
      CHANNELS 3 Zrotation Xrotation Yrotation
      JOINT Spine2
      {
        OFFSET 0 9.7078 -2.1609
        CHANNELS 3 Zrotation Xrotation Yrotation
        JOINT Neck
        {
          OFFSET 0 21.8761 -0.4549
          CHANNELS 3 Zrotation Xrotation Yrotation
          JOINT Head
          {
            OFFSET 0 12.3537 3.3602
            CHANNELS 3 Zrotation Xrotation Yrotation
            End Site
            {
              OFFSET 0.0001 18.9506 0.5657
            }
          }
        }
        JOINT LeftShoulder
        {
          OFFSET 2.2086 21.1115 7.2329
          CHANNELS 3 Zrotation Xrotation Yrotation
          JOINT LeftArm
          {
            OFFSET 13.1193 3.0282 -4.8998
            CHANNELS 3 Zrotation Xrotation Yrotation
            JOINT LeftForeArm
            {
              OFFSET 27.4081 -0.0973053 -0.2375
              CHANNELS 3 Zrotation Xrotation Yrotation
              JOINT LeftHand
              {
                OFFSET 22.8641 0.0662994 -0.1369
                CHANNELS 3 Zrotation Xrotation Yrotation
                JOINT LeftHandIndex1
                {
                  OFFSET 8.8614 0.775009 2.4612
                  CHANNELS 3 Zrotation Xrotation Yrotation
                  JOINT LeftHandIndex2
                  {
                    OFFSET 3.3146 -0.808304 0.5841
                    CHANNELS 3 Zrotation Xrotation Yrotation
                    JOINT LeftHandIndex3
                    {
                      OFFSET 2.2628 -0.552002 0.3989
                      CHANNELS 3 Zrotation Xrotation Yrotation
                      End Site
                      {
                        OFFSET 1.6102 -0.4807 0.2612
                      }
                    }
                  }
                }
                JOINT LeftHandMiddle1
                {
                  OFFSET 8.9937 0.895004 0.2143
                  CHANNELS 3 Zrotation Xrotation Yrotation
                  JOINT LeftHandMiddle2
                  {
                    OFFSET 4.0984 0.0113983 -0.0242
                    CHANNELS 3 Zrotation Xrotation Yrotation
                    JOINT LeftHandMiddle3
                    {
                      OFFSET 2.2716 0.00689697 -0.0138001
                      CHANNELS 3 Zrotation Xrotation Yrotation
                      End Site
                      {
                        OFFSET 2.0404 -0.1441 0.0027
                      }
                    }
                  }
                }
                JOINT LeftHandRing1
                {
                  OFFSET 8.5234 0.597198 -2.0164
                  CHANNELS 3 Zrotation Xrotation Yrotation
                  JOINT LeftHandRing2
                  {
                    OFFSET 3.7188 -0.188293 -0.2328
                    CHANNELS 3 Zrotation Xrotation Yrotation
                    JOINT LeftHandRing3
                    {
                      OFFSET 2.1191 -0.106598 -0.1332
                      CHANNELS 3 Zrotation Xrotation Yrotation
                      End Site
                      {
                        OFFSET 1.8737 -0.2304 -0.0886
                      }
                    }
                  }
                }
                JOINT LeftHandPinky1
                {
                  OFFSET 7.9094 -0.601089 -3.4825
                  CHANNELS 3 Zrotation Xrotation Yrotation
                  JOINT LeftHandPinky2
                  {
                    OFFSET 2.2874 -0.477005 -0.6314
                    CHANNELS 3 Zrotation Xrotation Yrotation
                    JOINT LeftHandPinky3
                    {
                      OFFSET 1.6774 -0.349396 -0.4633
                      CHANNELS 3 Zrotation Xrotation Yrotation
                      End Site
                      {
                        OFFSET 1.4888 -0.4091 -0.3416
                      }
                    }
                  }
                }
                JOINT LeftHandThumb1
                {
                  OFFSET 1.833 -1.3875 1.3896
                  CHANNELS 3 Zrotation Xrotation Yrotation
                  JOINT LeftHandThumb2
                  {
                    OFFSET 3.4129 -1.121 2.5732
                    CHANNELS 3 Zrotation Xrotation Yrotation
                    JOINT LeftHandThumb3
                    {
                      OFFSET 2.2474 -0.804199 1.6192
                      CHANNELS 3 Zrotation Xrotation Yrotation
                      End Site
                      {
                        OFFSET 1.6527 -0.5689 1.1317
                      }
                    }
                  }
                }
              }
            }
          }
        }
        JOINT RightShoulder
        {
          OFFSET -2.2086 21.1115 7.2329
          CHANNELS 3 Zrotation Xrotation Yrotation
          JOINT RightArm
          {
            OFFSET -13.1216 3.0287 -4.9007
            CHANNELS 3 Zrotation Xrotation Yrotation
            JOINT RightForeArm
            {
              OFFSET -27.4081 -0.0973053 -0.2375
              CHANNELS 3 Zrotation Xrotation Yrotation
              JOINT RightHand
              {
                OFFSET -22.8641 0.0664063 -0.1369
                CHANNELS 3 Zrotation Xrotation Yrotation
                JOINT RightHandIndex1
                {
                  OFFSET -8.8614 0.774994 2.4612
                  CHANNELS 3 Zrotation Xrotation Yrotation
                  JOINT RightHandIndex2
                  {
                    OFFSET -3.3146 -0.808304 0.5841
                    CHANNELS 3 Zrotation Xrotation Yrotation
                    JOINT RightHandIndex3
                    {
                      OFFSET -2.2628 -0.552002 0.3989
                      CHANNELS 3 Zrotation Xrotation Yrotation
                      End Site
                      {
                        OFFSET -1.6102 -0.4807 0.2612
                      }
                    }
                  }
                }
                JOINT RightHandMiddle1
                {
                  OFFSET -8.9937 0.894989 0.2143
                  CHANNELS 3 Zrotation Xrotation Yrotation
                  JOINT RightHandMiddle2
                  {
                    OFFSET -4.0984 0.0113983 -0.0242
                    CHANNELS 3 Zrotation Xrotation Yrotation
                    JOINT RightHandMiddle3
                    {
                      OFFSET -2.2716 0.00691223 -0.0138001
                      CHANNELS 3 Zrotation Xrotation Yrotation
                      End Site
                      {
                        OFFSET -2.0404 -0.1441 0.0027
                      }
                    }
                  }
                }
                JOINT RightHandRing1
                {
                  OFFSET -8.5234 0.597198 -2.0164
                  CHANNELS 3 Zrotation Xrotation Yrotation
                  JOINT RightHandRing2
                  {
                    OFFSET -3.7188 -0.188309 -0.2328
                    CHANNELS 3 Zrotation Xrotation Yrotation
                    JOINT RightHandRing3
                    {
                      OFFSET -2.1191 -0.106598 -0.1332
                      CHANNELS 3 Zrotation Xrotation Yrotation
                      End Site
                      {
                        OFFSET -1.8737 -0.2304 -0.0886
                      }
                    }
                  }
                }
                JOINT RightHandPinky1
                {
                  OFFSET -7.9094 -0.601105 -3.4825
                  CHANNELS 3 Zrotation Xrotation Yrotation
                  JOINT RightHandPinky2
                  {
                    OFFSET -2.2874 -0.477005 -0.6314
                    CHANNELS 3 Zrotation Xrotation Yrotation
                    JOINT RightHandPinky3
                    {
                      OFFSET -1.6774 -0.349396 -0.4633
                      CHANNELS 3 Zrotation Xrotation Yrotation
                      End Site
                      {
                        OFFSET -1.4888 -0.4091 -0.3416
                      }
                    }
                  }
                }
                JOINT RightHandThumb1
                {
                  OFFSET -1.833 -1.38751 1.3896
                  CHANNELS 3 Zrotation Xrotation Yrotation
                  JOINT RightHandThumb2
                  {
                    OFFSET -3.41299 -1.12099 2.5732
                    CHANNELS 3 Zrotation Xrotation Yrotation
                    JOINT RightHandThumb3
                    {
                      OFFSET -2.24741 -0.804108 1.6192
                      CHANNELS 3 Zrotation Xrotation Yrotation
                      End Site
                      {
                        OFFSET -1.6527 -0.5689 1.1317
                      }
                    }
                  }
                }
              }
            }
          }
        }
      }
    }
  }
  JOINT RightUpLeg
  {
    OFFSET -9.1966 3.8861 -0.7581
    CHANNELS 3 Zrotation Xrotation Yrotation
    JOINT RightLeg
    {
      OFFSET -0.7359 -41.0265 0
      CHANNELS 3 Zrotation Xrotation Yrotation
      JOINT RightFoot
      {
        OFFSET 0 -40.2855 0
        CHANNELS 3 Zrotation Xrotation Yrotation
        JOINT RightToeBase
        {
          OFFSET 0 -5.6122 11.7359
          CHANNELS 3 Zrotation Xrotation Yrotation
          End Site
          {
            OFFSET 0 0 7.8731
          }
        }
      }
    }
  }
  JOINT LeftUpLeg
  {
    OFFSET 9.1965 3.8864 -0.7581
    CHANNELS 3 Zrotation Xrotation Yrotation
    JOINT LeftLeg
    {
      OFFSET 0.7359 -41.0268 0
      CHANNELS 3 Zrotation Xrotation Yrotation
      JOINT LeftFoot
      {
        OFFSET 0 -40.2855 0
        CHANNELS 3 Zrotation Xrotation Yrotation
        JOINT LeftToeBase
        {
          OFFSET 0 -5.6122 11.7359
          CHANNELS 3 Zrotation Xrotation Yrotation
          End Site
          {
            OFFSET 0 0 7.8731
          }
        }
      }
    }
  }
}
MOTION
Frames:	4
Frame Time:	0.0333333
-0.112006 95.1624 5.67585 -180 -6.99617 -7.01671e-015 -0.116613 -3.271 -0.243705 -0.247795 -6.54142 -0.495305 -0.247795 -6.54141 -0.495305 6.62917e-006 26.8645 -3.81672e-006 1.05222e-007 -37.6216 1.37481e-007 -19.2136 6.3516 22.8862 0.17966 1.38525 -76.7065 -20.9371 -2.10597 -66.344 -33.1948 -47.3067 -20.304 -1.90833e-014 -4.77083e-015 -3.18055e-015 -1.90833e-014 -4.77083e-015 -0 -1.27222e-014 0 -0 -1.90833e-014 -4.77083e-015 -3.18055e-015 -0.0146229 -9.13993e-005 2.44457e-007 -0 -1.59028e-015 -0 -1.90833e-014 -4.77083e-015 -3.18055e-015 -0.0188013 -0.00117931 5.56165e-005 -9.54166e-015 0 1.59028e-015 -1.90833e-014 -4.77083e-015 -3.18055e-015 -0.012261 -0.00324674 0.000675806 -3.18055e-015 -4.77083e-015 -0 -1.90833e-014 -4.77083e-015 -3.18055e-015 -1.90833e-014 -4.77083e-015 -0 -1.27222e-014 0 -0 16.3917 4.46225 -24.4845 -0.755428 -0.107735 86.4525 19.2041 -6.21167 63.5623 40.2671 -43.3744 26.5949 1.23063e-006 1.30316e-006 5.32557e-007 -4.19942e-008 2.16627e-006 6.00557e-007 0 0 -0 1.23063e-006 1.30316e-006 5.32557e-007 0.0149955 -8.87993e-005 1.92825e-006 3.18055e-015 3.18055e-015 3.18055e-015 1.23063e-006 1.30316e-006 5.32557e-007 0.018955 -0.0011909 -6.08451e-005 -2.64834e-031 -9.54166e-015 -1.59028e-015 1.23063e-006 1.30316e-006 5.32557e-007 0.0123224 -0.00325836 -0.00067647 -1.22898e-006 -1.30366e-006 -5.32472e-007 1.23063e-006 1.30316e-006 5.32557e-007 -4.19942e-008 2.16627e-006 6.00557e-007 0 0 -0 -78.0561 -65.2092 -72.5432 80.4351 28.559 -94.8429 -24.5664 13.9682 32.7193 -6.49026e-006 -6.2138e-008 1.70902e-007 84.6267 -66.8615 75.9642 -100.583 30.3989 106.594 22.4779 12.4563 -31.0048 6.4447e-006 -1.66207e-007 1.04008e-006 
-0.112006 95.1624 5.67585 -180 -6.99617 -7.01671e-015 -0.116613 -3.271 -0.243705 -0.247795 -6.54142 -0.495305 -0.247795 -6.54141 -0.495305 2.24185e-006 26.8645 -1.29574e-007 1.75455e-007 -37.6216 4.11142e-007 -19.2136 6.3516 22.8862 0.179661 1.38525 -76.7065 -20.9371 -2.10598 -66.344 -33.1948 -47.3067 -20.304 5.40618e-006 7.62356e-007 -2.127e-006 -3.51589e-007 6.9211e-007 2.28615e-006 1.31887e-006 -3.22e-007 -9.67281e-007 5.40618e-006 7.62356e-007 -2.127e-006 -0.0146152 -8.96863e-005 2.76774e-006 1.79995e-006 1.03643e-006 -1.51118e-006 5.40618e-006 7.62356e-007 -2.127e-006 -0.0187166 -0.00117203 5.7527e-005 1.31892e-006 -3.21839e-007 -9.67347e-007 5.40618e-006 7.62356e-007 -2.127e-006 -0.0122627 -0.00325132 0.00067957 1.31888e-006 -3.21894e-007 -9.67355e-007 5.40618e-006 7.62356e-007 -2.127e-006 -3.51589e-007 6.9211e-007 2.28615e-006 1.31887e-006 -3.22e-007 -9.67281e-007 16.3917 4.46224 -24.4845 -0.755431 -0.107734 86.4525 19.2041 -6.21168 63.5623 40.2671 -43.3744 26.5949 -2.96535e-006 -7.08847e-007 -3.35735e-006 3.22321e-007 -8.77596e-007 3.69215e-006 -5.04083e-007 1.89748e-006 -2.29223e-006 -2.96535e-006 -7.08847e-007 -3.35735e-006 0.0150144 -9.48263e-005 2.20704e-006 -1.73479e-006 5.93948e-007 -2.82487e-006 -2.96535e-006 -7.08847e-007 -3.35735e-006 0.0189435 -0.0011875 -5.648e-005 -1.73484e-006 5.93855e-007 -2.82487e-006 -2.96535e-006 -7.08847e-007 -3.35735e-006 0.0122733 -0.00324245 -0.000672746 -2.96386e-006 -7.09642e-007 -3.35728e-006 -2.96535e-006 -7.08847e-007 -3.35735e-006 3.22321e-007 -8.77596e-007 3.69215e-006 -5.04083e-007 1.89748e-006 -2.29223e-006 -78.0561 -65.2092 -72.5432 80.4351 28.559 -94.8429 -24.5664 13.9682 32.7193 -7.49873e-006 -1.073e-007 4.31206e-007 84.6268 -66.8615 75.9643 -100.583 30.3989 106.594 22.4779 12.4563 -31.0048 3.18373e-006 -1.45134e-008 9.90347e-007 
-0.113416 95.159 5.66792 -180 -6.99617 -7.01671e-015 -0.116237 -3.3873 -0.24414 -0.247611 -6.77401 -0.496483 -0.247611 -6.774 -0.496483 -8.30229e-007 26.2832 1.59924e-006 -2.18151e-007 -35.9478 -3.48138e-007 -19.354 6.72549 22.8783 0.179663 1.38525 -76.7065 -20.855 -2.29609 -65.7988 -33.6241 -47.1762 -20.5501 -8.82781e-032 1.59028e-015 3.18055e-015 -2.28549e-006 -4.83062e-008 -3.52306e-007 3.18055e-015 0 -1.59028e-015 -8.82781e-032 1.59028e-015 3.18055e-015 -0.0146273 -8.94128e-005 1.08943e-006 6.36111e-015 0 3.18055e-015 -8.82781e-032 1.59028e-015 3.18055e-015 -0.0187646 -0.00116871 5.94296e-005 -8.82781e-032 3.18055e-015 1.59028e-015 -8.82781e-032 1.59028e-015 3.18055e-015 -0.0122596 -0.00325315 0.000678234 3.53113e-031 -6.36111e-015 3.18055e-015 -8.82781e-032 1.59028e-015 3.18055e-015 -2.28549e-006 -4.83062e-008 -3.52306e-007 3.18055e-015 0 -1.59028e-015 16.4988 4.88727 -24.3795 -0.755424 -0.107737 86.4525 19.1012 -6.41623 62.926 40.672 -43.192 26.8529 -0 -6.36111e-015 -0 -2.23007e-006 -2.15394e-006 -1.14838e-006 2.23007e-006 2.15394e-006 1.14838e-006 -0 -6.36111e-015 -0 0.0149859 -8.99667e-005 4.86797e-007 -3.18055e-015 0 1.59028e-015 -0 -6.36111e-015 -0 0.0190044 -0.00118929 -5.61943e-005 -3.18055e-015 -3.18055e-015 -0 -0 -6.36111e-015 -0 0.0122982 -0.00325184 -0.000678685 -3.18055e-015 -3.18055e-015 1.59028e-015 -0 -6.36111e-015 -0 -2.23007e-006 -2.15394e-006 -1.14838e-006 2.23007e-006 2.15394e-006 1.14838e-006 -78.764 -65.5023 -72.953 80.4371 28.5592 -94.8377 -24.3209 14.336 32.3931 -4.06804e-009 -4.27873e-007 6.36643e-008 85.4444 -67.1062 76.6138 -100.263 30.4106 106.434 22.3475 12.9015 -30.7728 3.26108e-006 -1.52165e-007 4.93794e-008 
-0.114556 95.1563 5.66142 -180 -6.99617 -7.01671e-015 -0.115926 -3.48247 -0.244492 -0.247459 -6.96437 -0.49744 -0.247459 -6.96437 -0.49744 6.31717e-006 25.8072 -3.19211e-006 -8.70409e-008 -34.5741 -1.90052e-007 -19.4689 7.03143 22.8725 0.179655 1.38525 -76.7065 -20.7865 -2.45078 -65.3521 -33.9739 -47.0685 -20.7499 -6.36111e-015 1.59028e-015 1.59028e-015 -3.18055e-015 1.59028e-015 1.59028e-015 -3.18055e-015 6.36111e-015 -0 -6.36111e-015 1.59028e-015 1.59028e-015 -0.0146298 -8.96848e-005 3.58195e-006 3.18055e-015 -1.59028e-015 -1.59028e-015 -6.36111e-015 1.59028e-015 1.59028e-015 -0.0188018 -0.00118241 5.78704e-005 -9.54166e-015 -1.59028e-015 -0 -6.36111e-015 1.59028e-015 1.59028e-015 -0.0122924 -0.00326019 0.000675656 3.18055e-015 0 -3.18055e-015 -6.36111e-015 1.59028e-015 1.59028e-015 -3.18055e-015 1.59028e-015 1.59028e-015 -3.18055e-015 6.36111e-015 -0 16.5861 5.23517 -24.294 -0.755432 -0.107735 86.4525 19.0154 -6.58268 62.4046 41.0015 -43.0417 27.062 1.73264e-006 -5.97995e-007 2.82483e-006 -2.59896e-006 8.96992e-007 -4.23725e-006 1.73264e-006 -5.97995e-007 2.82483e-006 1.73264e-006 -5.97995e-007 2.82483e-006 0.0149719 -8.96588e-005 -3.55994e-006 1.73272e-006 -5.97626e-007 2.82491e-006 1.73264e-006 -5.97995e-007 2.82483e-006 0.0189756 -0.0011902 -5.88131e-005 1.73277e-006 -5.97532e-007 2.82491e-006 1.73264e-006 -5.97995e-007 2.82483e-006 0.0122268 -0.00323566 -0.000677011 1.73279e-006 -5.97699e-007 2.82484e-006 1.73264e-006 -5.97995e-007 2.82483e-006 -2.59896e-006 8.96992e-007 -4.23725e-006 1.73264e-006 -5.97995e-007 2.82483e-006 -79.3534 -65.7405 -73.2988 80.4388 28.5593 -94.8334 -24.1182 14.6359 32.1242 -7.50399e-006 -7.66352e-008 5.4288e-007 86.1252 -67.3037 77.1572 -100.002 30.4196 106.303 22.2392 13.2655 -30.5817 3.26116e-006 -1.52534e-007 4.90662e-008 
